<svg version="1.2" xmlns="http://www.w3.org/2000/svg" viewBox="0 0 6774 1304" width="6774" height="1304"><style>.a{fill:#00245e}.b{fill:#85da2f}.c{fill:#23c1ff}.d{fill:#ffca11}.e{fill:#0069da}.f{fill:#ff4649}</style><path fill-rule="evenodd" class="a" d="m2093 1047l-46-137.5h-306l-46 137.5h-164l266.5-765h188l269 765zm-304-280h210l-105-312.5z"/><path class="a" d="m2325 1047v-798h142v798z"/><path class="a" d="m3199.5 485c63.5 0 111.5 19.5 148.5 61 37 41.5 57 96 57 164v336.5h-140v-328c0-33-8.5-59-24-76.5-15.5-17.5-39.5-26-68-26-33 0-57 11-74.5 33-17.5 22-26 52.5-26 92v306h-140v-328c0-33-8.5-59-24-76.5-15.5-17.5-39.5-26-68-26-30.5 0-57 11-76.5 33-17.5 22-26 52.5-26 92v306h-140v-546.5h140v57c33-48 83-74.5 153-74.5 68 0 116 26 148.5 78.5 33-50.5 87.5-76.5 159.5-76.5z"/><path fill-rule="evenodd" class="a" d="m3940.5 500.5h140v546.5h-140v-65.5c-41.5 52.5-103 81-179.5 81-72 0-135.5-28.5-188-83-52.5-57-78.5-124.5-78.5-205.5 0-81 26-148.5 78.5-205.5 52.5-57 116-85.5 188-85.5 76.5 0 135.5 26 179.5 81zm-260 385c28.5 28.5 63.5 43.5 107 43.5 43.5 0 81-13 109.5-43.5 28.5-28.5 43.5-65.5 43.5-111.5 0-46-15.5-83-43.5-109.5-28.5-28.5-65.5-43.5-109.5-43.5-43.5 0-78.5 15.5-107 43.5-28.5 28.5-41.5 65.5-41.5 109.5 0 43.5 13 83 41.5 111.5z"/><path class="a" d="m4367 902.5h290.5v144.5h-441.5v-765.5h151z"/><path class="a" d="m4808.5 434.5c-24 0-43.5-8.5-61-24-17.5-17.5-26-37-26-61 0-24 8.5-43.5 26-61 17.5-17.5 37-26 61-26 24 0 43.5 8.5 61 26 17.5 17.5 26 37 26 61 0 24-8.5 43.5-26 61-17.5 15.5-37 24-61 24zm-70 612v-546.5h142v546.5z"/><path class="a" d="m5311 485c59 0 109.5 19.5 148.5 61 39.5 39.5 59 96 59 166v334.5h-140v-319c0-37-11-63.5-30.5-83-19.5-19.5-46-30.5-78.5-30.5-37 0-65.5 11-87.5 35-22 24-33 57-33 102.5v295h-140v-546.5h140v61c35-50.5 87.5-76.5 162-76.5z"/><path class="a" d="m6000 500.5h142v546.5h-142v-61c-35 50.5-87.5 76.5-162 76.5-59 0-109.5-19.5-148.5-61-39.5-39.5-57-96-57-166v-334.5h142v317c0 37 8.5 65.5 28.5 85.5 19.5 19.5 46 28.5 78.5 28.5 37 0 65.5-11 87.5-33 22-22 33-57 33-103v-295h-2z"/><path class="a" d="m6774 1047h-164l-118-166.5-120.5 166.5h-161.5l198.5-280-192-266.5h161.5l111.5 153 109.5-153h161.5l-192 266.5z"/><path class="b" d="m1227.5 736.5c57-4.5 103 33 107 89.5 4.5 59-37 107-94 111.5-54.5 4.5-103-37-107-92-4.5-59 35-103 94-109.5z"/><path class="c" d="m536.5 1202c0-57 43.5-100.5 96-100.5 52.5 0 103 48 103 103 0 52.5-43.5 98.5-94 100.5-63.5 0-105-39.5-105-103z"/><path class="d" d="m691.5 563.5c-9 4.5-13-2-15.5-8.5-81-151-57-341 85.5-454.5 37-30.5 107-37 137.5-6.5 13 11 15.5 24 17.5 39.5 4.5 33 11 65.5 33 92 24 28.5 54.5 39.5 89.5 37 30.5 0 61-4.5 81 30.5 11 19.5 6.5 96-11 111.5-8.5 6.5-15.5 2-22 0-50.5-19.5-103-19.5-155-11-17.5 2-26-2-26-22-2-33-8.5-63.5-26-92-33-59-94-61-133.5-6.5-33 43.5-41.5 96-50.5 148.5-8.5 46-6.5 94-4.5 142 0 0-2 0 0 0z"/><path class="b" d="m746.5 596.5c-4.5-6.5-2-13 4.5-17.5 124.5-113.5 310.5-135.5 454.5-24 37 30.5 61 94 41.5 131-8.5 15.5-19.5 22-33 26-30.5 13-59 26-78.5 54.5-19.5 28.5-24 61-15.5 96 6.5 28.5 17.5 59-11 85.5-15.5 15.5-89.5 28.5-109.5 15.5-8.5-6.5-6.5-13-4.5-22 6.5-54.5-6.5-105-26-153-6.5-17.5-4.5-26 13-30.5 30.5-9 59-24 81-46 48-46 37-105-26-131-50.5-22-103-17.5-153-13-48 2-94 15.5-137.5 28.5z"/><path class="c" d="m718 653.5c6.5-6.5 11-4.5 17.5 0 144.5 87.5 218.5 260 153 428.5-17.5 43.5-74.5 87.5-116 76.5-17.5-4.5-26-13-35-24-19.5-26-41.5-50.5-74.5-61-35-11-65.5-4.5-96 13-26 15.5-52.5 35-85.5 15.5-19.5-11-52.5-78.5-46-100.5 4.5-8.5 13-8.5 22-8.5 54.5-8.5 98.5-35 140-70 13-11 24-11 35 4.5 17.5 26 39.5 48 68 63.5 57 33 111.5 4.5 118-61 6.5-54.5-13-103-30.5-151-19.5-43.5-43.5-85.5-70-124.5z"/><path class="e" d="m648 666.5c-8.5 43.5-28.5 85.5-54.5 122.5-78.5 118-192.5 166-332.5 153-50.5-4.5-92-46-96-87.5-2-17.5 2-30.5 13-43.5 15.5-19.5 28.5-37 35-61 13-48-4.5-87.5-39.5-122.5-48-48-41.5-92 15.5-127 6.5-4.5 15.5-8.5 24-13 13-6.5 24-6.5 28.5 8.5 19.5 50.5 59 87.5 103 118 15.5 13 15.5 22 2 37-26 28.5-41.5 63.5-43.5 103-4.5 48 24 78.5 72 78.5 30.5 0 59-11 85.5-24 68-35 120-85.5 170.5-137.5 6.5-2 8.5-6.5 17.5-4.5z"/><path class="f" d="m289.5 207.5c4.5 0 15.5 2 26 4.5 81 15.5 131-13 157.5-89.5 17.5-50.5 54.5-65.5 103-39.5 2 0 2 2 4.5 2 50.5 28.5 50.5 33 19.5 76.5-26 35-39.5 74.5-46 116-4.5 24-13 28.5-35 19.5-35-13-72-13-109.5 0-41.5 13-59 50.5-46 92 17.5 54.5 65.5 78.5 107 107 41.5 28.5 89.5 43.5 135.5 63.5 6.5 2 17.5 2 15.5 13-2 6.5-11 6.5-19.5 6.5-98.5 4.5-192.5-11-269-76.5-72-59-124.5-131-116-232 6.5-33 30.5-57 72-63.5z"/><path class="e" d="m110 821.5c-52.5 6.5-105-37-109.5-92-4.5-52.5 39.5-105 89.5-109.5 57-6.5 109.5 33 113.5 85.5 2 50.5-30.5 111.5-94 116z"/><path class="d" d="m1028.5 43.5c54.5-4.5 107 39.5 111.5 94 4.5 52.5-39.5 103-92 107-57 4.5-107-37-111.5-92-4.5-54.5 35-105 92-109.5z"/><path class="f" d="m457.5 85c6.5 57-33 105-92 113.5-50.5 6.5-103-35-109.5-83-6.5-63.5 28.5-109.5 87.5-116 54.5-6.5 107 35 113.5 85.5z"/></svg>