<svg version="1.2" xmlns="http://www.w3.org/2000/svg" viewBox="0 0 202 59" width="202" height="59"><style>.a{fill:#b44c56}</style><path fill-rule="evenodd" class="a" d="m135.8-63.5c-0.7 0.5-1.2 1-2 1.6-2.5-0.4-4.8-1.4-2.9-1.4 1.6 0.2 3.3 0.2 4.9-0.2zm6.2-6.7c-0.3 1.4-3.6 5 0 2.8 0.7-1.2 1.4-2.3 1.6-3.7-0.2 1.9-1.1 3.6-2.2 5.2 0.1-1.3-3.3 0.6 0.6-4.3zm2.2-6.7c0.3-1.4 1.2-2.5 1 1-0.3 1.4-0.6-0.9-1-1zm-18.5-46.1c0.1-0.3-1-0.4-2.2-0.6 3.5 0.1 3.3 0.3 2.2 0.6zm-0.1 0.1h-0.7l0.8-0.1z"/><path fill-rule="evenodd" class="a" d="m34.7 26.1c0 1.1-0.4 1.7-0.7 2.7l-0.6 0.3c-0.5 1 0.1 0.6-0.3 1.4-0.8 0.7-2.3 2.2-2.8 2.3-0.4 0 0.2-0.5 0.3-0.6-1 0.7-0.8 1.1-2.4 1.5v-0.1c-3.9 1.8-9.4-1.8-9.3-6.8 0 0.3-0.1 0.2-0.2 0.3-0.2-2.5 1.2-5.1 3.5-6.2 2.3-1.1 4.9-0.7 6.6 0.9-0.9-1.2-2.7-2.5-4.8-2.3-2.1 0-4 1.3-4.6 2.7-1.1 0.7-1.2 2.6-1.7 3-0.6 4.6 1.2 6.6 4.2 9 0.5 0.3 0.1 0.3 0.2 0.6q-1.5-0.8-2.7-2.1c0.4 0.6 0.9 1.2 1.4 1.6-0.9-0.3-2.2-2.3-2.6-2.4 1.7 3 6.7 5.2 9.3 4.1-1.3 0-2.8 0-4.1-0.5-0.6-0.3-1.4-0.9-1.3-1 3.6 1.3 7.3 1 10.4-1.5 0.8-0.6 1.6-1.7 1.9-1.7-0.4 0.6 0 0.3-0.3 0.8 0.8-1.3-0.3-0.5 0.8-2.2l0.5 0.6c-0.2-1.1 1.3-2.4 1.1-4 0.4-0.5 0.4 0.5 0.1 1.7 0.5-1.3 0.1-1.5 0.2-2.6 0.2 0.4 0.3 0.7 0.4 1.1-0.3-1.3 0.3-2.1 0.5-2.9-0.2 0-0.5 0.6-0.6-0.9 0.1-0.6 0.2-0.3 0.3-0.5-0.1 0-0.5-0.5-0.7-1.5 0.2-0.2 0.4 0.6 0.6 0.6-0.1-0.7-0.3-1.3-0.3-1.9-0.6-1.2-0.2 0.2-0.7-0.5-0.6-2 0.5-0.5 0.6-1.3 0.9 1.3 1.4 3.4 1.7 4.3-0.2-1.1-0.5-2.1-0.9-3.1 0.3 0.1-0.4-2.2 0.4-0.7-0.9-3.3-3.8-6.3-6.4-7.7 0.3 0.3 0.7 0.6 0.6 0.7-1.4-0.8-1.1-0.9-1.3-1.2-1.1-0.4-1.2 0-1.9 0-2-1.1-2.4-1-4.3-1.7l0.1 0.5c-1.3-0.5-1.5 0.1-3 0-0.1-0.1 0.4-0.3 0.9-0.4-1.3 0.2-1.2-0.2-2.5 0.1 0.3-0.3 0.6-0.4 1-0.6-1.1 0.1-2.6 0.6-2.1 0.1-1.7 0.8-4.8 1.9-6.5 3.5l-0.1-0.3c-0.8 0.9-3.4 2.9-3.6 4.1h-0.2c-0.5 0.7-0.7 1.5-1 2.3-0.6 0.9-0.9 0.3-0.7 0.5-1.1 2.1-1.7 3.9-2.1 5.4 0.3 0.5 0 3 0.1 4.9-0.5 9.8 6.8 19.2 14.7 21.4 1.2 0.4 2.9 0.4 4.4 0.4-1.8-0.5-2-0.3-3.7-0.8-1.2-0.7-1.5-1.3-2.4-2l0.4 0.6c-1.7-0.6-1-0.8-2.4-1.2l0.4-0.5c-0.5-0.1-1.5-1-1.7-1.5l-0.6 0.1c-0.7-1-1.1-1.6-1.1-2.1l-0.2 0.4c-0.2-0.4-2.6-3.4-1.4-2.7-0.2-0.2-0.5-0.4-0.9-1l0.3-0.3c-0.6-0.8-1.1-1.8-1.1-2.2 0.3 0.5 0.6 0.6 0.8 0.7-1.5-3.9-1.6-0.2-2.8-4h0.3c-0.2-0.3-0.3-0.6-0.5-0.9l0.1-1.1c-1.1-1.3-0.3-5.5-0.1-7.8 0.1-0.9 0.9-1.9 1.5-3.5l-0.4-0.1c0.7-1.2 4.1-5.1 5.7-4.8 0.8-1-0.2 0-0.3-0.3 1.7-1.8 2.2-1.2 3.3-1.6 1.2-0.7-1 0.3-0.4-0.2 2-0.6 1.4-1.2 4.2-1.5 0.3 0.1-0.7 0.2-0.9 0.4 1.7-0.8 5.5-0.6 8 0.5 2.8 1.4 6 5.4 6.2 9.1h0.1c-0.1 1.5 0.2 3.3-0.3 4.9z"/><path fill-rule="evenodd" class="a" d="m113.5-54.3c-1.7-1.3-2.8-3.2-4-5l0.3-1.3c1.6 3.1 2.4 4 3.7 6.3zm-0.1-4.7c-0.8-1.3-1.7-2.7-2.1-4.3 0.4 0.9 0.8 1.8 1.5 2.5zm49.1-1.8q0.6-1.3 1.2-2.6 0.5-1.3 0.9-2.7 0.5-1.3 0.8-2.7 0.3-1.4 0.4-2.8l0.3-0.7c-0.5 4-1.7 7.9-3.6 11.5zm-39.3-63.9c1.8-0.2 3.7-0.3 5.4-0.4-1.4 0.3-3.2 0.1-4.5 0.6zm-45.3 24.8c0.2 0.8 1.9-1.2 0.6 1.8-2.7 1.9-0.4 0.9-0.6-1.8zm-2.1 8.8c-0.3 1-0.4 2.1-1 4 0.2-1.4-0.7-1.9 1-4zm2.1-8.9q0 0 0 0.1 0 0 0-0.1z"/><path fill-rule="evenodd" d="m64.3 17.5c2.5 0 3.9 0.4 5 0.8 0-7.9 0-8.9-1.5-10.6 4.1-0.3 5.9-1 8.1-2-0.9 4.7-0.9 20.1-0.9 29.2 0 9.5 0.8 13.8 1.7 15.6q-0.6 0-1.5 0c-1.9 0-4.6 0-5.8 0l-0.1-5.3c-1 3.6-3.4 5.6-7.2 5.6-1.3 0-10.3 0-10.3-16.9 0-7 1.8-16.4 12.5-16.4zm4.9 5.4c-0.9-0.5-2-1.1-4.1-1.1-6.8 0-7 8-7 10.9 0 0.9 0 3 0.4 5.4 0.4 2.3 1.5 7.4 6 7.4 4.3 0 4.5-4.4 4.6-6.4 0.1-2.6 0.1-12.3 0.2-12.3zm31.4 12.1h-16c0 3 0.1 11.5 9.4 11.5 3.7 0 5.2-1.1 6.6-1.8-0.4 1.9-0.7 3.2-0.7 5.4-1 0.3-3 0.8-7.1 0.8-9.3 0-14.7-4.7-14.7-17 0-2.9 0-16.4 12.3-16.4 8.8 0 10.2 6.9 10.2 13.9zm-5.8-4.1c0.1-4.3-0.2-9.4-4.9-9.4-4.3 0-5.3 4.4-5.4 9.4zm8.3 9.7v-14.7c0-13 0-17-2.3-17.9 2.5-0.3 4.9-0.6 8.8-2.4-0.4 5.5-0.5 16.2-0.5 19.2 0.9-2.4 2.6-7.3 8.4-7.3 2.9 0 5.6 1.5 7.3 4.3 1.7 3 1.9 7.8 1.9 9.9 0 3.6-0.6 8.4-2.3 11.8-3.7 7.5-10.5 7.5-12.8 7.5-3.7 0-6.7-0.5-9.3-1.5 0.8-1.9 0.8-4.4 0.8-8.9zm11.8-17.5c-0.6 0-3.4 0-4.7 4.3-0.4 1.4-0.9 4-0.9 9.2 0 4.3 0 8 0.1 10.2 0.8 0.2 2 0.4 2.9 0.4 7.1 0 8.1-7.5 8.1-13.1 0-4.7-1-11-5.5-11zm23.3 27.5c-1.1-0.1-1.9-0.3-3.7-0.3-2 0-3.3 0.2-4.7 0.3 0.7-1.1 0.9-1.7 1-5.5 0.3-5.4 0.4-19.7 0-22.7-0.3-2.3-0.9-2.6-1.7-3.3 4.9-0.4 6.3-0.8 8.6-1.8-0.5 2.6-0.6 3.9-0.6 7.9-0.1 20.8-0.2 23 1.1 25.4zm15.5-20.5c1.6 0 2.6 0.1 3.7 0.2 0-4.8 0-8.1-5-8.1-3.1 0-6.1 1.1-8.6 3.2-0.4-2.6-1.1-3.7-1.7-5.1 1.6-0.9 5.2-2.8 11.1-2.8 9 0 10.3 4.6 10.3 9.2l-0.1 12.2c0 3.2 0 5.6 0.1 7.8 0.2 2.3 0.5 3 1.2 3.9-1 0-2-0.1-3-0.1-1.8 0-2.9 0.1-3.9 0.1-0.2-2-0.3-3.6-0.2-6.3-1.2 2.5-3.1 6.6-8.6 6.6-0.5 0-2 0-3.5-0.7-3.3-1.5-4.5-5.4-4.5-9.2 0-8 5.1-10.9 12.7-10.9zm3.9 3.5h-3.3c-2.2 0-7.3 0.5-7.3 6.1 0 3 0.8 6 4.4 6 1.6 0 3.7-0.8 5-3.5 1-2.1 1-4.8 1.2-8.6zm34.6 11.1c0 2.1 0 4.2 0.9 5.9-1.3-0.1-2.2-0.3-4.6-0.3-1.4 0-2.2 0.2-3.4 0.3 0.3-0.7 0.4-1 0.5-2 0.2-1.4 0.3-6 0.3-7.7v-6.4c0-2.9 0-7-0.2-8.5-0.1-1-0.4-3.7-3.8-3.7-3.5 0-4.6 2.5-5.1 4.6-0.4 2-0.4 4.4-0.4 13.3 0.1 7.6 0.1 8.4 0.6 10.4q-0.5 0-1-0.1-0.5 0-1 0-0.6 0-1.1-0.1-0.5 0-1 0c-1.4 0-2.3 0.1-3.5 0.2 0.3-0.9 0.6-1.4 0.7-4.7 0.1-3.3 0.4-19.6-0.2-23.4-0.3-2.4-0.9-2.9-1.6-3.6 5-0.1 6.5-1 8-1.7v6.3c0.7-1.8 2.2-6 8.3-6 7.5 0 7.6 5.5 7.6 9.1zm-34.6-11.1z"/><path fill-rule="evenodd" class="a" d="m137.7 8.7l-5 4.9-5-4.9 5-5.1z"/></svg>