<?xml version="1.0" encoding="UTF-8"?>
<!DOCTYPE svg PUBLIC "-//W3C//DTD SVG 1.1//EN" "http://www.w3.org/Graphics/SVG/1.1/DTD/svg11.dtd">
<!-- Creator: CorelDRAW X5 -->
<svg xmlns="http://www.w3.org/2000/svg" xml:space="preserve" width="135.467mm" height="38.1mm" style="shape-rendering:geometricPrecision; text-rendering:geometricPrecision; image-rendering:optimizeQuality; fill-rule:evenodd; clip-rule:evenodd"
viewBox="0 0 13547 3810"
 xmlns:xlink="http://www.w3.org/1999/xlink"
 xmlns:svg="http://www.w3.org/2000/svg">
 <defs>
  <style type="text/css">
   <![CDATA[
    .fil0 {fill:#50A1DA;fill-rule:nonzero}
    .fil1 {fill:white;fill-rule:nonzero}
   ]]>
  </style>
 </defs>
 <g id="Layer_x0020_1">
  <metadata id="CorelCorpID_0Corel-Layer"/>
 </g>
 <g id="Layer_x0020_1_0">
  <metadata id="CorelCorpID_1Corel-Layer"/>
  <g id="Fedora_x0020_Logo.cdr">
   <g>
    <path class="fil0" d="M1942 0c-1072,0 -1940,852 -1942,1904l0 0 0 1474 0 0c1,239 198,432 441,432l1501 0c1072,-1 1940,-853 1940,-1904 0,-1052 -869,-1904 -1942,-1904l2 -2zm3397 769l0 0c-410,0 -674,306 -676,592l0 1659c-1,205 317,205 317,0l0 -1107 326 0c76,0 141,-54 141,-141 0,-87 -70,-139 -141,-139l-326 0 0 -255c0,-163 130,-299 393,-296 91,1 123,23 157,43 182,118 357,-155 166,-260 -117,-70 -226,-95 -356,-95l0 0zm3470 30l0 0c-99,-5 -171,91 -156,182l0 707c-313,-258 -823,-240 -1112,46 -292,256 -348,719 -135,1038 156,241 442,413 737,399 185,-2 369,-80 511,-196 -15,91 57,188 157,182 98,4 174,-90 159,-182 -2,-680 2,-1359 -2,-2039 -5,-76 -79,-139 -157,-137l0 0 -1 0zm1224 692l0 0c-478,0 -865,377 -865,841 0,465 387,842 865,842 478,0 865,-377 865,-842 0,-465 -387,-841 -865,-841zm2826 7l0 0c-216,0 -372,63 -485,143 -172,121 13,374 185,253 78,-55 137,-84 300,-84 203,4 367,79 367,228 -109,68 -583,124 -838,266 -255,142 -241,321 -241,438 0,255 274,427 512,427 237,0 338,-49 571,-205l0 44c-8,214 325,214 317,0l0 -916c1,-380 -277,-588 -687,-593l0 0zm-1575 3l0 0c-137,0 -160,111 -160,156l0 1351c-4,87 70,160 162,160 92,0 166,-73 162,-160 0,0 2,-503 0,-824 -2,-322 265,-391 357,-391 69,0 124,38 179,36 81,-3 147,-56 147,-150 -2,-151 -191,-173 -331,-170 -139,3 -257,45 -359,104 0,0 -21,-112 -159,-112l0 0zm-4866 3l0 0c-105,-8 -222,9 -349,57 -310,117 -520,406 -521,762 -1,373 265,854 817,858 371,2 557,-134 657,-226 66,-58 71,-158 10,-222 -61,-63 -163,-65 -226,-3 -75,69 -185,171 -497,137 -134,-15 -278,-121 -326,-203l1023 -427c78,-34 114,-123 81,-200 -137,-264 -353,-509 -669,-533l0 0zm3617 301l0 0c299,0 541,236 541,526 0,291 -242,527 -541,527 -299,0 -541,-236 -541,-527 0,-291 242,-526 541,-526zm-1910 8l0 0c283,-7 535,243 530,517 6,275 -247,524 -530,517 -269,7 -515,-216 -529,-478 -29,-270 197,-533 474,-554 18,-2 37,-2 55,-2l0 0zm-1786 8l0 0c154,0 299,78 373,203l-852 357c-61,-223 189,-484 325,-533 51,-18 103,-27 154,-27zm6899 521l0 0c0,101 2,130 -1,230 -1,121 -78,177 -159,223 -81,46 -246,87 -341,91 -110,4 -256,-21 -264,-149 0,-77 38,-125 101,-179 148,-109 349,-146 665,-217l0 0z"/>
   </g>
   <g>
    <path class="fil1" d="M2337 784c-303,0 -570,224 -607,517 -2,25 -3,42 -3,64l0 1200c0,230 -176,387 -395,387 -220,0 -397,-172 -397,-387 4,-236 196,-386 421,-392l1 0 228 -2 0 -317 -228 2c-409,-4 -733,310 -745,709 0,388 325,704 720,704 372,0 682,-285 716,-642 5,-121 3,-282 3,-282 1,-66 -1,-42 0,-173l283 -2c219,2 216,-322 -3,-317l-280 2c0,-163 3,-324 0,-487 0,-141 136,-265 287,-265 151,0 311,74 311,265 0,27 -1,43 -2,53 -17,89 45,174 136,187 91,13 175,-52 184,-142 5,-36 5,-67 5,-98 0,-338 -308,-583 -634,-583l0 -1z"/>
   </g>
  </g>
 </g>
</svg>
